<svg width="30" height="29" viewBox="0 0 30 29" fill="none" xmlns="http://www.w3.org/2000/svg">
<path d="M0 2.41667C0 1.07995 0.957589 0 2.14286 0H27.8571C29.0424 0 30 1.07995 30 2.41667C30 3.75339 29.0424 4.83333 27.8571 4.83333H2.14286C0.957589 4.83333 0 3.75339 0 2.41667ZM0 14.5C0 13.1633 0.957589 12.0833 2.14286 12.0833H27.8571C29.0424 12.0833 30 13.1633 30 14.5C30 15.8367 29.0424 16.9167 27.8571 16.9167H2.14286C0.957589 16.9167 0 15.8367 0 14.5ZM30 26.5833C30 27.9201 29.0424 29 27.8571 29H2.14286C0.957589 29 0 27.9201 0 26.5833C0 25.2466 0.957589 24.1667 2.14286 24.1667H27.8571C29.0424 24.1667 30 25.2466 30 26.5833Z" fill="white"/>
</svg>
